<svg width="493" height="107" viewBox="0 0 493 107" fill="none" xmlns="http://www.w3.org/2000/svg">
<g clip-path="url(#clip0_2_64)">
<rect x="28.8369" width="23.5248" height="14.4184" fill="url(#paint0_linear_2_64)"/>
<path fill-rule="evenodd" clip-rule="evenodd" d="M27.3191 7.20921H25.0426V11.383H27.3191V27.6985C11.4108 33.2621 0 48.404 0 66.211C0 88.7381 18.2619 107 40.789 107C63.3162 107 81.578 88.7381 81.578 66.211C81.578 48.404 70.1672 33.2621 54.2589 27.6985V11.383H56.156V7.20921H54.2589H27.3191Z" fill="white" fill-opacity="0.33"/>
<path fill-rule="evenodd" clip-rule="evenodd" d="M7.63397 75.3461C13.723 70.2372 24.3711 63.4268 32.6312 65.2624C44.5833 67.9184 62.9858 67.1596 66.211 63.7447C68.0131 61.8366 71.2158 59.8174 73.8023 58.3853C74.4207 60.9561 74.7482 63.6401 74.7482 66.4007C74.7482 85.2606 59.4592 100.55 40.5993 100.55C24.8346 100.55 11.5649 89.8672 7.63397 75.3461Z" fill="url(#paint1_linear_2_64)"/>
<circle cx="33.3901" cy="88.7872" r="4.55319" fill="#46E33C"/>
<circle cx="32.4415" cy="75.3174" r="3.60461" fill="#46E33C"/>
<path fill-rule="evenodd" clip-rule="evenodd" d="M31.5109 65.0673C31.8887 65.1157 32.2623 65.1804 32.6312 65.2624C33.4071 65.4348 34.2102 65.5929 35.0346 65.7367C35.196 66.0493 35.2872 66.4041 35.2872 66.7801C35.2872 68.0375 34.268 69.0567 33.0106 69.0567C31.7533 69.0567 30.734 68.0375 30.734 66.7801C30.734 66.0972 31.0347 65.4846 31.5109 65.0673ZM65.4549 64.3407C65.7603 64.152 66.014 63.9533 66.211 63.7447C67.3566 62.5317 69.0683 61.2738 70.8278 60.1504C71.8172 60.793 72.4716 61.9078 72.4716 63.1755C72.4716 65.1663 70.8578 66.7801 68.867 66.7801C67.284 66.7801 65.9393 65.7597 65.4549 64.3407ZM45.0647 66.7751C47.0707 66.8613 49.0703 66.881 50.9981 66.8366C51.8379 67.6319 52.3617 68.7574 52.3617 70.0053C52.3617 72.4152 50.4081 74.3688 47.9982 74.3688C45.5883 74.3688 43.6348 72.4152 43.6348 70.0053C43.6348 68.7249 44.1863 67.5733 45.0647 66.7751ZM16.1589 69.3585C18.247 68.1594 20.4497 67.0931 22.6658 66.3104C22.9708 66.8396 23.1454 67.4535 23.1454 68.1082C23.1454 70.0989 21.5315 71.7128 19.5408 71.7128C17.9896 71.7128 16.6673 70.733 16.1589 69.3585Z" fill="#46E33C"/>
<circle cx="59.9504" cy="72.8511" r="5.31206" fill="#46E33C"/>
<circle cx="61.8475" cy="84.234" r="3.41489" fill="#46E33C"/>
<circle cx="44.3936" cy="80.8192" r="1.89716" fill="#46E33C"/>
<circle cx="52.3617" cy="89.5461" r="5.31206" fill="#46E33C"/>
<circle cx="18.7819" cy="79.4911" r="5.88121" fill="#46E33C"/>
<path d="M139.006 32.0909V83H129.71L107.561 50.9581H107.188V83H96.4247V32.0909H105.871L127.845 64.108H128.293V32.0909H139.006ZM165.101 83.7457C161.173 83.7457 157.793 82.9503 154.959 81.3594C152.142 79.7519 149.971 77.4815 148.446 74.5483C146.922 71.5985 146.159 68.1101 146.159 64.0831C146.159 60.1555 146.922 56.7086 148.446 53.7422C149.971 50.7758 152.117 48.464 154.884 46.8068C157.669 45.1496 160.933 44.321 164.678 44.321C167.197 44.321 169.542 44.727 171.713 45.5391C173.901 46.3345 175.807 47.536 177.431 49.1435C179.071 50.7509 180.347 52.7727 181.259 55.2088C182.17 57.6283 182.626 60.4621 182.626 63.7102V66.6186H150.385V60.0561H172.658C172.658 58.5315 172.326 57.1809 171.664 56.0043C171.001 54.8277 170.081 53.9079 168.904 53.245C167.744 52.5656 166.394 52.2259 164.852 52.2259C163.245 52.2259 161.82 52.5987 160.577 53.3445C159.351 54.0736 158.389 55.0597 157.693 56.3026C156.997 57.5289 156.641 58.8961 156.624 60.4041V66.6435C156.624 68.5327 156.972 70.165 157.669 71.5405C158.381 72.916 159.384 73.9766 160.676 74.7223C161.969 75.468 163.502 75.8409 165.275 75.8409C166.452 75.8409 167.529 75.6752 168.507 75.3438C169.484 75.0123 170.321 74.5152 171.017 73.8523C171.713 73.1894 172.244 72.3774 172.608 71.4162L182.402 72.0625C181.905 74.4157 180.886 76.4706 179.345 78.2273C177.82 79.9673 175.848 81.3262 173.428 82.304C171.026 83.2652 168.25 83.7457 165.101 83.7457ZM196.795 83L186.404 44.8182H197.118L203.034 70.4716H203.382L209.547 44.8182H220.062L226.326 70.3224H226.649L232.466 44.8182H243.155L232.789 83H221.578L215.016 58.9872H214.544L207.981 83H196.795ZM265.204 83V32.0909H285.289C289.151 32.0909 292.44 32.8284 295.158 34.3033C297.876 35.7616 299.947 37.7917 301.372 40.3935C302.814 42.9787 303.535 45.9616 303.535 49.3423C303.535 52.723 302.806 55.706 301.347 58.2912C299.889 60.8764 297.776 62.8899 295.009 64.3317C292.258 65.7734 288.927 66.4943 285.016 66.4943H272.214V57.8686H283.276C285.347 57.8686 287.054 57.5123 288.396 56.7997C289.755 56.0705 290.766 55.0679 291.429 53.7919C292.109 52.4993 292.448 51.0161 292.448 49.3423C292.448 47.652 292.109 46.1771 291.429 44.9176C290.766 43.6416 289.755 42.6555 288.396 41.9595C287.038 41.2469 285.314 40.8906 283.226 40.8906H275.968V83H265.204ZM326.964 83.7457C323.102 83.7457 319.763 82.9254 316.946 81.2848C314.145 79.6276 311.983 77.3241 310.458 74.3743C308.933 71.4079 308.171 67.9692 308.171 64.0582C308.171 60.1141 308.933 56.6671 310.458 53.7173C311.983 50.7509 314.145 48.4474 316.946 46.8068C319.763 45.1496 323.102 44.321 326.964 44.321C330.825 44.321 334.156 45.1496 336.956 46.8068C339.774 48.4474 341.945 50.7509 343.469 53.7173C344.994 56.6671 345.756 60.1141 345.756 64.0582C345.756 67.9692 344.994 71.4079 343.469 74.3743C341.945 77.3241 339.774 79.6276 336.956 81.2848C334.156 82.9254 330.825 83.7457 326.964 83.7457ZM327.013 75.5426C328.77 75.5426 330.237 75.0455 331.413 74.0511C332.59 73.0402 333.476 71.6648 334.073 69.9247C334.686 68.1847 334.993 66.2043 334.993 63.9837C334.993 61.763 334.686 59.7827 334.073 58.0426C333.476 56.3026 332.59 54.9271 331.413 53.9162C330.237 52.9053 328.77 52.3999 327.013 52.3999C325.24 52.3999 323.749 52.9053 322.539 53.9162C321.346 54.9271 320.443 56.3026 319.829 58.0426C319.233 59.7827 318.934 61.763 318.934 63.9837C318.934 66.2043 319.233 68.1847 319.829 69.9247C320.443 71.6648 321.346 73.0402 322.539 74.0511C323.749 75.0455 325.24 75.5426 327.013 75.5426ZM352.642 83V44.8182H363.231V83H352.642ZM357.961 39.8963C356.387 39.8963 355.037 39.3743 353.91 38.3303C352.799 37.2696 352.244 36.0019 352.244 34.527C352.244 33.0687 352.799 31.8175 353.91 30.7734C355.037 29.7128 356.387 29.1825 357.961 29.1825C359.536 29.1825 360.878 29.7128 361.988 30.7734C363.115 31.8175 363.679 33.0687 363.679 34.527C363.679 36.0019 363.115 37.2696 361.988 38.3303C360.878 39.3743 359.536 39.8963 357.961 39.8963ZM403.483 55.706L393.788 56.3026C393.622 55.474 393.266 54.7282 392.719 54.0653C392.172 53.3859 391.451 52.8473 390.556 52.4496C389.678 52.0353 388.626 51.8281 387.4 51.8281C385.759 51.8281 384.375 52.1761 383.248 52.8722C382.121 53.5516 381.558 54.4631 381.558 55.6065C381.558 56.518 381.922 57.2886 382.652 57.9183C383.381 58.5481 384.632 59.0535 386.405 59.4347L393.316 60.8267C397.028 61.589 399.795 62.8153 401.618 64.5057C403.441 66.196 404.353 68.4167 404.353 71.1676C404.353 73.67 403.615 75.8658 402.14 77.755C400.682 79.6442 398.677 81.1191 396.125 82.1797C393.589 83.2237 390.664 83.7457 387.35 83.7457C382.295 83.7457 378.268 82.6934 375.269 80.5888C372.286 78.4676 370.538 75.584 370.024 71.9382L380.439 71.3913C380.754 72.9325 381.516 74.1091 382.726 74.9212C383.936 75.7166 385.485 76.1143 387.375 76.1143C389.231 76.1143 390.722 75.758 391.849 75.0455C392.993 74.3163 393.573 73.38 393.589 72.2365C393.573 71.2753 393.167 70.4882 392.371 69.875C391.576 69.2453 390.349 68.7647 388.692 68.4332L382.08 67.1158C378.351 66.37 375.575 65.0774 373.752 63.2379C371.946 61.3984 371.043 59.0535 371.043 56.2031C371.043 53.7505 371.706 51.6375 373.032 49.8643C374.374 48.0911 376.255 46.724 378.674 45.7628C381.11 44.8016 383.961 44.321 387.225 44.321C392.048 44.321 395.843 45.3402 398.61 47.3785C401.395 49.4169 403.019 52.1927 403.483 55.706ZM428.272 83.7457C424.411 83.7457 421.072 82.9254 418.254 81.2848C415.454 79.6276 413.291 77.3241 411.767 74.3743C410.242 71.4079 409.48 67.9692 409.48 64.0582C409.48 60.1141 410.242 56.6671 411.767 53.7173C413.291 50.7509 415.454 48.4474 418.254 46.8068C421.072 45.1496 424.411 44.321 428.272 44.321C432.133 44.321 435.464 45.1496 438.265 46.8068C441.082 48.4474 443.253 50.7509 444.778 53.7173C446.302 56.6671 447.065 60.1141 447.065 64.0582C447.065 67.9692 446.302 71.4079 444.778 74.3743C443.253 77.3241 441.082 79.6276 438.265 81.2848C435.464 82.9254 432.133 83.7457 428.272 83.7457ZM428.322 75.5426C430.079 75.5426 431.545 75.0455 432.722 74.0511C433.898 73.0402 434.785 71.6648 435.382 69.9247C435.995 68.1847 436.301 66.2043 436.301 63.9837C436.301 61.763 435.995 59.7827 435.382 58.0426C434.785 56.3026 433.898 54.9271 432.722 53.9162C431.545 52.9053 430.079 52.3999 428.322 52.3999C426.549 52.3999 425.057 52.9053 423.847 53.9162C422.654 54.9271 421.751 56.3026 421.138 58.0426C420.541 59.7827 420.243 61.763 420.243 63.9837C420.243 66.2043 420.541 68.1847 421.138 69.9247C421.751 71.6648 422.654 73.0402 423.847 74.0511C425.057 75.0455 426.549 75.5426 428.322 75.5426ZM464.54 60.9261V83H453.95V44.8182H464.043V51.5547H464.49C465.335 49.334 466.752 47.5774 468.741 46.2848C470.73 44.9756 473.141 44.321 475.975 44.321C478.626 44.321 480.938 44.901 482.91 46.0611C484.882 47.2211 486.415 48.8783 487.509 51.0327C488.602 53.1705 489.149 55.7225 489.149 58.6889V83H478.56V60.5781C478.576 58.2415 477.98 56.4186 476.77 55.1094C475.56 53.7836 473.895 53.1207 471.774 53.1207C470.348 53.1207 469.089 53.4273 467.995 54.0405C466.918 54.6536 466.073 55.5485 465.46 56.7251C464.863 57.8852 464.557 59.2855 464.54 60.9261Z" fill="white"/>
</g>
<defs>
<linearGradient id="paint0_linear_2_64" x1="30.734" y1="0.379433" x2="50.0851" y2="13.6596" gradientUnits="userSpaceOnUse">
<stop stop-color="#D2B073"/>
<stop offset="1" stop-color="#8B7244"/>
</linearGradient>
<linearGradient id="paint1_linear_2_64" x1="41.1911" y1="58.3853" x2="41.1911" y2="100.55" gradientUnits="userSpaceOnUse">
<stop stop-color="#2CFA1F"/>
<stop offset="1" stop-color="#0EEE00"/>
</linearGradient>
<clipPath id="clip0_2_64">
<rect width="493" height="107" fill="white"/>
</clipPath>
</defs>
</svg>
